<mxfile host="Electron" modified="2023-12-17T14:41:09.102Z" agent="Mozilla/5.0 (Windows NT 10.0; Win64; x64) AppleWebKit/537.36 (KHTML, like Gecko) draw.io/22.1.2 Chrome/114.0.5735.289 Electron/25.9.4 Safari/537.36" etag="N9GsSI1nAoEbvbMXM9nX" version="22.1.2" type="device">
  <diagram name="Page-1" id="L5OGDcEBdllk8MKgZDTf">
    <mxGraphModel dx="331" dy="233" grid="1" gridSize="10" guides="1" tooltips="1" connect="1" arrows="1" fold="1" page="1" pageScale="1" pageWidth="1600" pageHeight="900" math="0" shadow="0">
      <root>
        <mxCell id="0" />
        <mxCell id="1" parent="0" />
        <mxCell id="I_ZzfUf9Fkxa_gC3TFAI-10" style="edgeStyle=orthogonalEdgeStyle;rounded=0;orthogonalLoop=1;jettySize=auto;html=1;exitX=0;exitY=0.5;exitDx=0;exitDy=0;entryX=0;entryY=0.5;entryDx=0;entryDy=0;strokeWidth=1;startArrow=blockThin;startFill=1;endArrow=blockThin;endFill=1;targetPerimeterSpacing=0;endSize=3;startSize=3;" edge="1" parent="1" source="I_ZzfUf9Fkxa_gC3TFAI-1" target="I_ZzfUf9Fkxa_gC3TFAI-2">
          <mxGeometry relative="1" as="geometry" />
        </mxCell>
        <mxCell id="I_ZzfUf9Fkxa_gC3TFAI-11" style="edgeStyle=orthogonalEdgeStyle;rounded=0;orthogonalLoop=1;jettySize=auto;html=1;exitX=0;exitY=0.5;exitDx=0;exitDy=0;entryX=0;entryY=0.5;entryDx=0;entryDy=0;strokeWidth=1;startArrow=blockThin;startFill=1;endArrow=blockThin;endFill=1;targetPerimeterSpacing=0;endSize=3;startSize=3;" edge="1" parent="1" source="I_ZzfUf9Fkxa_gC3TFAI-1" target="I_ZzfUf9Fkxa_gC3TFAI-3">
          <mxGeometry relative="1" as="geometry" />
        </mxCell>
        <mxCell id="I_ZzfUf9Fkxa_gC3TFAI-12" style="edgeStyle=orthogonalEdgeStyle;rounded=0;orthogonalLoop=1;jettySize=auto;html=1;exitX=0;exitY=0.5;exitDx=0;exitDy=0;entryX=0;entryY=0.5;entryDx=0;entryDy=0;strokeWidth=1;startArrow=blockThin;startFill=1;endArrow=blockThin;endFill=1;targetPerimeterSpacing=0;endSize=3;startSize=3;" edge="1" parent="1" source="I_ZzfUf9Fkxa_gC3TFAI-1" target="I_ZzfUf9Fkxa_gC3TFAI-4">
          <mxGeometry relative="1" as="geometry" />
        </mxCell>
        <mxCell id="I_ZzfUf9Fkxa_gC3TFAI-13" style="edgeStyle=orthogonalEdgeStyle;rounded=0;orthogonalLoop=1;jettySize=auto;html=1;exitX=0;exitY=0.5;exitDx=0;exitDy=0;entryX=0;entryY=0.5;entryDx=0;entryDy=0;strokeWidth=1;startArrow=blockThin;startFill=1;endArrow=blockThin;endFill=1;targetPerimeterSpacing=0;endSize=3;startSize=3;" edge="1" parent="1" source="I_ZzfUf9Fkxa_gC3TFAI-1" target="I_ZzfUf9Fkxa_gC3TFAI-5">
          <mxGeometry relative="1" as="geometry" />
        </mxCell>
        <mxCell id="I_ZzfUf9Fkxa_gC3TFAI-14" style="edgeStyle=orthogonalEdgeStyle;rounded=0;orthogonalLoop=1;jettySize=auto;html=1;exitX=0;exitY=0.5;exitDx=0;exitDy=0;entryX=0;entryY=0.5;entryDx=0;entryDy=0;strokeWidth=1;startArrow=blockThin;startFill=1;endArrow=blockThin;endFill=1;targetPerimeterSpacing=0;endSize=3;startSize=3;" edge="1" parent="1" source="I_ZzfUf9Fkxa_gC3TFAI-1" target="I_ZzfUf9Fkxa_gC3TFAI-6">
          <mxGeometry relative="1" as="geometry" />
        </mxCell>
        <mxCell id="I_ZzfUf9Fkxa_gC3TFAI-15" style="edgeStyle=orthogonalEdgeStyle;rounded=0;orthogonalLoop=1;jettySize=auto;html=1;exitX=0;exitY=0.5;exitDx=0;exitDy=0;entryX=0;entryY=0.5;entryDx=0;entryDy=0;strokeWidth=1;startArrow=blockThin;startFill=1;endArrow=blockThin;endFill=1;targetPerimeterSpacing=0;endSize=3;startSize=3;" edge="1" parent="1" source="I_ZzfUf9Fkxa_gC3TFAI-1" target="I_ZzfUf9Fkxa_gC3TFAI-7">
          <mxGeometry relative="1" as="geometry" />
        </mxCell>
        <mxCell id="I_ZzfUf9Fkxa_gC3TFAI-16" style="edgeStyle=orthogonalEdgeStyle;rounded=0;orthogonalLoop=1;jettySize=auto;html=1;exitX=0;exitY=0.5;exitDx=0;exitDy=0;entryX=0;entryY=0.5;entryDx=0;entryDy=0;strokeWidth=1;startArrow=blockThin;startFill=1;endArrow=blockThin;endFill=1;targetPerimeterSpacing=0;endSize=3;startSize=3;" edge="1" parent="1" source="I_ZzfUf9Fkxa_gC3TFAI-1" target="I_ZzfUf9Fkxa_gC3TFAI-8">
          <mxGeometry relative="1" as="geometry" />
        </mxCell>
        <mxCell id="I_ZzfUf9Fkxa_gC3TFAI-23" style="edgeStyle=orthogonalEdgeStyle;rounded=0;orthogonalLoop=1;jettySize=auto;html=1;exitX=1;exitY=0.5;exitDx=0;exitDy=0;entryX=1;entryY=0.5;entryDx=0;entryDy=0;startArrow=blockThin;startFill=1;endArrow=blockThin;endFill=1;strokeWidth=1;targetPerimeterSpacing=0;endSize=3;startSize=3;" edge="1" parent="1" source="I_ZzfUf9Fkxa_gC3TFAI-1" target="I_ZzfUf9Fkxa_gC3TFAI-2">
          <mxGeometry relative="1" as="geometry" />
        </mxCell>
        <mxCell id="I_ZzfUf9Fkxa_gC3TFAI-24" style="edgeStyle=orthogonalEdgeStyle;rounded=0;orthogonalLoop=1;jettySize=auto;html=1;exitX=0.5;exitY=1;exitDx=0;exitDy=0;entryX=0.5;entryY=0;entryDx=0;entryDy=0;startArrow=blockThin;startFill=1;endArrow=blockThin;endFill=1;strokeWidth=1;targetPerimeterSpacing=0;endSize=3;startSize=3;" edge="1" parent="1" source="I_ZzfUf9Fkxa_gC3TFAI-1" target="I_ZzfUf9Fkxa_gC3TFAI-2">
          <mxGeometry relative="1" as="geometry" />
        </mxCell>
        <mxCell id="I_ZzfUf9Fkxa_gC3TFAI-1" value="Home&lt;br&gt;&amp;lt;index.html&amp;gt;" style="rounded=0;whiteSpace=wrap;html=1;" vertex="1" parent="1">
          <mxGeometry x="712.89" y="140" width="175" height="60" as="geometry" />
        </mxCell>
        <mxCell id="I_ZzfUf9Fkxa_gC3TFAI-17" style="edgeStyle=orthogonalEdgeStyle;rounded=0;orthogonalLoop=1;jettySize=auto;html=1;exitX=1;exitY=0.5;exitDx=0;exitDy=0;entryX=1;entryY=0.5;entryDx=0;entryDy=0;endArrow=blockThin;endFill=1;startArrow=blockThin;startFill=1;strokeWidth=1;targetPerimeterSpacing=0;endSize=3;startSize=3;" edge="1" parent="1" source="I_ZzfUf9Fkxa_gC3TFAI-2" target="I_ZzfUf9Fkxa_gC3TFAI-3">
          <mxGeometry relative="1" as="geometry" />
        </mxCell>
        <mxCell id="I_ZzfUf9Fkxa_gC3TFAI-25" style="edgeStyle=orthogonalEdgeStyle;rounded=0;orthogonalLoop=1;jettySize=auto;html=1;exitX=0.5;exitY=1;exitDx=0;exitDy=0;entryX=0.5;entryY=0;entryDx=0;entryDy=0;endArrow=blockThin;endFill=1;startArrow=blockThin;startFill=1;strokeWidth=1;targetPerimeterSpacing=0;endSize=3;startSize=3;" edge="1" parent="1" source="I_ZzfUf9Fkxa_gC3TFAI-2" target="I_ZzfUf9Fkxa_gC3TFAI-3">
          <mxGeometry relative="1" as="geometry" />
        </mxCell>
        <mxCell id="I_ZzfUf9Fkxa_gC3TFAI-2" value="Knowledge&lt;br&gt;&amp;lt;knowledge.html&amp;gt;" style="rounded=0;whiteSpace=wrap;html=1;" vertex="1" parent="1">
          <mxGeometry x="712.89" y="220" width="175" height="60" as="geometry" />
        </mxCell>
        <mxCell id="I_ZzfUf9Fkxa_gC3TFAI-18" style="edgeStyle=orthogonalEdgeStyle;rounded=0;orthogonalLoop=1;jettySize=auto;html=1;exitX=1;exitY=0.5;exitDx=0;exitDy=0;entryX=1;entryY=0.5;entryDx=0;entryDy=0;endArrow=blockThin;endFill=1;startArrow=blockThin;startFill=1;strokeWidth=1;targetPerimeterSpacing=0;endSize=3;startSize=3;" edge="1" parent="1" source="I_ZzfUf9Fkxa_gC3TFAI-3" target="I_ZzfUf9Fkxa_gC3TFAI-4">
          <mxGeometry relative="1" as="geometry" />
        </mxCell>
        <mxCell id="I_ZzfUf9Fkxa_gC3TFAI-26" style="edgeStyle=orthogonalEdgeStyle;rounded=0;orthogonalLoop=1;jettySize=auto;html=1;exitX=0.5;exitY=1;exitDx=0;exitDy=0;entryX=0.5;entryY=0;entryDx=0;entryDy=0;startArrow=blockThin;startFill=1;endArrow=blockThin;endFill=1;strokeWidth=1;targetPerimeterSpacing=0;endSize=3;startSize=3;" edge="1" parent="1" source="I_ZzfUf9Fkxa_gC3TFAI-3" target="I_ZzfUf9Fkxa_gC3TFAI-4">
          <mxGeometry relative="1" as="geometry" />
        </mxCell>
        <mxCell id="I_ZzfUf9Fkxa_gC3TFAI-3" value="Skills&lt;br&gt;&amp;lt;skills.html&amp;gt;" style="rounded=0;whiteSpace=wrap;html=1;" vertex="1" parent="1">
          <mxGeometry x="712.89" y="300" width="175" height="60" as="geometry" />
        </mxCell>
        <mxCell id="I_ZzfUf9Fkxa_gC3TFAI-19" style="edgeStyle=orthogonalEdgeStyle;rounded=0;orthogonalLoop=1;jettySize=auto;html=1;exitX=1;exitY=0.5;exitDx=0;exitDy=0;entryX=1;entryY=0.5;entryDx=0;entryDy=0;startArrow=blockThin;startFill=1;endArrow=blockThin;endFill=1;strokeWidth=1;targetPerimeterSpacing=0;endSize=3;startSize=3;" edge="1" parent="1" source="I_ZzfUf9Fkxa_gC3TFAI-4" target="I_ZzfUf9Fkxa_gC3TFAI-5">
          <mxGeometry relative="1" as="geometry" />
        </mxCell>
        <mxCell id="I_ZzfUf9Fkxa_gC3TFAI-27" style="edgeStyle=orthogonalEdgeStyle;rounded=0;orthogonalLoop=1;jettySize=auto;html=1;exitX=0.5;exitY=1;exitDx=0;exitDy=0;entryX=0.5;entryY=0;entryDx=0;entryDy=0;startArrow=blockThin;startFill=1;endArrow=blockThin;endFill=1;strokeWidth=1;targetPerimeterSpacing=0;endSize=3;startSize=3;" edge="1" parent="1" source="I_ZzfUf9Fkxa_gC3TFAI-4" target="I_ZzfUf9Fkxa_gC3TFAI-5">
          <mxGeometry relative="1" as="geometry" />
        </mxCell>
        <mxCell id="I_ZzfUf9Fkxa_gC3TFAI-4" value="Portfolio&lt;br&gt;&amp;lt;portfolio.html&amp;gt;" style="rounded=0;whiteSpace=wrap;html=1;" vertex="1" parent="1">
          <mxGeometry x="712.89" y="380" width="175" height="60" as="geometry" />
        </mxCell>
        <mxCell id="I_ZzfUf9Fkxa_gC3TFAI-20" style="edgeStyle=orthogonalEdgeStyle;rounded=0;orthogonalLoop=1;jettySize=auto;html=1;exitX=1;exitY=0.5;exitDx=0;exitDy=0;entryX=1;entryY=0.5;entryDx=0;entryDy=0;startArrow=blockThin;startFill=1;endArrow=blockThin;endFill=1;strokeWidth=1;targetPerimeterSpacing=0;endSize=3;startSize=3;" edge="1" parent="1" source="I_ZzfUf9Fkxa_gC3TFAI-5" target="I_ZzfUf9Fkxa_gC3TFAI-6">
          <mxGeometry relative="1" as="geometry" />
        </mxCell>
        <mxCell id="I_ZzfUf9Fkxa_gC3TFAI-28" style="edgeStyle=orthogonalEdgeStyle;rounded=0;orthogonalLoop=1;jettySize=auto;html=1;exitX=0.5;exitY=1;exitDx=0;exitDy=0;entryX=0.5;entryY=0;entryDx=0;entryDy=0;startArrow=blockThin;startFill=1;endArrow=blockThin;endFill=1;strokeWidth=1;targetPerimeterSpacing=0;endSize=3;startSize=3;" edge="1" parent="1" source="I_ZzfUf9Fkxa_gC3TFAI-5" target="I_ZzfUf9Fkxa_gC3TFAI-6">
          <mxGeometry relative="1" as="geometry" />
        </mxCell>
        <mxCell id="I_ZzfUf9Fkxa_gC3TFAI-5" value="Portfolio/Products&lt;br&gt;&amp;lt;portfolio-products.html&amp;gt;" style="rounded=0;whiteSpace=wrap;html=1;" vertex="1" parent="1">
          <mxGeometry x="712.89" y="460" width="175" height="60" as="geometry" />
        </mxCell>
        <mxCell id="I_ZzfUf9Fkxa_gC3TFAI-21" style="edgeStyle=orthogonalEdgeStyle;rounded=0;orthogonalLoop=1;jettySize=auto;html=1;exitX=1;exitY=0.5;exitDx=0;exitDy=0;entryX=1;entryY=0.5;entryDx=0;entryDy=0;startArrow=blockThin;startFill=1;endArrow=blockThin;endFill=1;strokeWidth=1;targetPerimeterSpacing=0;endSize=3;startSize=3;" edge="1" parent="1" source="I_ZzfUf9Fkxa_gC3TFAI-6" target="I_ZzfUf9Fkxa_gC3TFAI-7">
          <mxGeometry relative="1" as="geometry" />
        </mxCell>
        <mxCell id="I_ZzfUf9Fkxa_gC3TFAI-29" style="edgeStyle=orthogonalEdgeStyle;rounded=0;orthogonalLoop=1;jettySize=auto;html=1;exitX=0.5;exitY=1;exitDx=0;exitDy=0;entryX=0.5;entryY=0;entryDx=0;entryDy=0;startArrow=blockThin;startFill=1;endArrow=blockThin;endFill=1;strokeWidth=1;targetPerimeterSpacing=0;endSize=3;startSize=3;" edge="1" parent="1" source="I_ZzfUf9Fkxa_gC3TFAI-6" target="I_ZzfUf9Fkxa_gC3TFAI-7">
          <mxGeometry relative="1" as="geometry" />
        </mxCell>
        <mxCell id="I_ZzfUf9Fkxa_gC3TFAI-6" value="Portfolio/Projects&lt;br&gt;&amp;lt;portfolio-projects.html&amp;gt;" style="rounded=0;whiteSpace=wrap;html=1;" vertex="1" parent="1">
          <mxGeometry x="712.89" y="540" width="175" height="60" as="geometry" />
        </mxCell>
        <mxCell id="I_ZzfUf9Fkxa_gC3TFAI-22" style="edgeStyle=orthogonalEdgeStyle;rounded=0;orthogonalLoop=1;jettySize=auto;html=1;exitX=1;exitY=0.5;exitDx=0;exitDy=0;entryX=1;entryY=0.5;entryDx=0;entryDy=0;startArrow=blockThin;startFill=1;endArrow=blockThin;endFill=1;strokeWidth=1;targetPerimeterSpacing=0;endSize=3;startSize=3;" edge="1" parent="1" source="I_ZzfUf9Fkxa_gC3TFAI-7" target="I_ZzfUf9Fkxa_gC3TFAI-8">
          <mxGeometry relative="1" as="geometry" />
        </mxCell>
        <mxCell id="I_ZzfUf9Fkxa_gC3TFAI-30" style="edgeStyle=orthogonalEdgeStyle;rounded=0;orthogonalLoop=1;jettySize=auto;html=1;exitX=0.5;exitY=1;exitDx=0;exitDy=0;entryX=0.5;entryY=0;entryDx=0;entryDy=0;startArrow=blockThin;startFill=1;endArrow=blockThin;endFill=1;strokeWidth=1;targetPerimeterSpacing=0;endSize=3;startSize=3;" edge="1" parent="1" source="I_ZzfUf9Fkxa_gC3TFAI-7" target="I_ZzfUf9Fkxa_gC3TFAI-8">
          <mxGeometry relative="1" as="geometry" />
        </mxCell>
        <mxCell id="I_ZzfUf9Fkxa_gC3TFAI-7" value="Interests&lt;br&gt;&amp;lt;interests.html&amp;gt;" style="rounded=0;whiteSpace=wrap;html=1;" vertex="1" parent="1">
          <mxGeometry x="712.89" y="620" width="175" height="60" as="geometry" />
        </mxCell>
        <mxCell id="I_ZzfUf9Fkxa_gC3TFAI-8" value="Contact&lt;br&gt;&amp;lt;contact.html&amp;gt;" style="rounded=0;whiteSpace=wrap;html=1;" vertex="1" parent="1">
          <mxGeometry x="712.89" y="700" width="175" height="60" as="geometry" />
        </mxCell>
      </root>
    </mxGraphModel>
  </diagram>
</mxfile>
